<svg id="Livello_1" data-name="Livello 1" xmlns="http://www.w3.org/2000/svg" viewBox="0 0 296.02 115.41"><defs><style>.cls-1{fill:#000000;}.cls-2{fill:#fff;stroke-width:0.86px;}.cls-2,.cls-3{stroke:#000000;stroke-miterlimit:10;}.cls-3{fill:none;stroke-width:1.91px;}</style></defs><title>FakelogoTavola disegno 1</title><path class="cls-1" d="M9,7.34h30.3V18.67H20.53V29.75H39.29V40.91H20.53V68.39H9Z"/><path class="cls-1" d="M61.88,7.34H73.66L97.14,68.39H85.07L80.29,55.81H55.38l-5,12.58H38.33Zm6,16.18-8.19,21H76Z"/><path class="cls-1" d="M99.84,7.34h11.74v21l16.58-21h14L120.79,34.58l23.39,33.81H130.4L111.58,41.26V68.39H99.84Z"/><path class="cls-1" d="M146.13,7.34h33.33V18.71H157.67v11h21.79V40.91H157.67V57h21.79V68.39H146.13Z"/><path class="cls-1" d="M211,7.61a3.2,3.2,0,0,1,2.28.86,6.33,6.33,0,0,1,1.46,2.09,9.26,9.26,0,0,1,.71,2.69,16.05,16.05,0,0,1,.11,2.61,24.36,24.36,0,0,1-1.89,7.37,45.13,45.13,0,0,1-3.88,7.18,59.52,59.52,0,0,1-5.12,6.66A73.39,73.39,0,0,1,199,42.81q-.62,2.2-1,4t-.75,4c-.25,1.47-.46,2.92-.6,4.35a8.17,8.17,0,0,0-.11,1.35v1.23a12.38,12.38,0,0,0,.71,4.46,2.55,2.55,0,0,0,2.53,1.81,6.58,6.58,0,0,0,4.46-2,29.12,29.12,0,0,0,4.21-5,64.25,64.25,0,0,0,3.71-6.27q1.69-3.3,3-5.88c.44-1,.84-1.85,1.21-2.59a11,11,0,0,1,.88-1.54,1.19,1.19,0,0,1,.47-.22,2.38,2.38,0,0,1,.41,0,1.1,1.1,0,0,1,.8.3,3,3,0,0,1,.52.74l-1.87,3.8h0q-1.15,2.48-2.47,5.17t-2.78,5.28q-1.45,2.58-3.08,4.95A31.68,31.68,0,0,1,206,64.73a15.56,15.56,0,0,1-3.63,2.83,8.05,8.05,0,0,1-3.94,1A7.81,7.81,0,0,1,194,67.45a8.31,8.31,0,0,1-2.75-3,13.29,13.29,0,0,1-1.43-4.16,26,26,0,0,1-.42-4.67V54.12a10,10,0,0,1,.11-1.46v.05q.17-2,.66-5t1.27-6.51c.51-2.37,1.14-4.83,1.87-7.4s1.56-5.1,2.47-7.59a76.91,76.91,0,0,1,3-7.12,36.86,36.86,0,0,1,3.55-5.94,17.63,17.63,0,0,1,4.07-4.07A7.86,7.86,0,0,1,211,7.61Zm.77,4.35c-.59,0-1.34.67-2.26,2a39.07,39.07,0,0,0-3,5.5c-1.06,2.33-2.14,5.08-3.24,8.27s-2.13,6.66-3.08,10.4a34.36,34.36,0,0,0,3.16-3.3,54.8,54.8,0,0,0,4-5.31A46.2,46.2,0,0,0,211,23.15a19,19,0,0,0,1.87-6.52c0-.47.06-1,.06-1.51a8.15,8.15,0,0,0-.14-1.51,3.7,3.7,0,0,0-.41-1.18A.79.79,0,0,0,211.75,12Z"/><path class="cls-1" d="M223.57,68a8,8,0,0,1-5.22-1.67A12.47,12.47,0,0,1,215,62.06a19.87,19.87,0,0,1-1.82-5.72,36.86,36.86,0,0,1-.52-6.1V48.62a8.26,8.26,0,0,1,.11-1.46c.14-1.76.35-3.39.6-4.9a21.64,21.64,0,0,1,1-3.85,6.63,6.63,0,0,1,2.56-1.92,7.81,7.81,0,0,1,3-.61,8,8,0,0,1,1.79.22,7.87,7.87,0,0,1,1.67.61,42.81,42.81,0,0,1,1-5.8,18.61,18.61,0,0,1,2-5.2A11.07,11.07,0,0,1,229.87,22a9.78,9.78,0,0,1,5.47-1.43,8.82,8.82,0,0,1,4.59,1.13,9.34,9.34,0,0,1,3.14,3,14,14,0,0,1,1.82,4.56,26.84,26.84,0,0,1,.57,5.67,28.36,28.36,0,0,1-.16,3.13v0a46.75,46.75,0,0,1-1.82,8.8A47.86,47.86,0,0,1,240,55.3a9.71,9.71,0,0,0,3.79-1.62,16,16,0,0,0,3-2.86,25.92,25.92,0,0,0,2.5-3.69c.75-1.34,1.48-2.68,2.17-4l1.21-2.2.53-.22a1.09,1.09,0,0,1,.41-.11.88.88,0,0,1,.55.22,1.67,1.67,0,0,1,.44.88c-.63,1.47-1.43,3.14-2.42,5a33,33,0,0,1-3.52,5.36,22.26,22.26,0,0,1-4.65,4.35,11,11,0,0,1-5.8,2,32.12,32.12,0,0,1-3,3.9,19.81,19.81,0,0,1-3.5,3,17.26,17.26,0,0,1-3.9,2A12.62,12.62,0,0,1,223.57,68Zm10.89-9.84A17.07,17.07,0,0,1,229.73,56a13.3,13.3,0,0,1-3.3-3.17,14.91,14.91,0,0,1-2.06-4,23,23,0,0,1-1-4.73,17.53,17.53,0,0,0-.24,1.81c-.06.63-.12,1.25-.2,1.87-.11,1.18-.16,2.31-.16,3.41a29.65,29.65,0,0,0,.25,3.94,12.73,12.73,0,0,0,.85,3.35,6.29,6.29,0,0,0,1.59,2.34,3.5,3.5,0,0,0,2.42.88,7,7,0,0,0,3.47-.88A12,12,0,0,0,234.46,58.16Zm-5-18.37a45.71,45.71,0,0,0,.27,4.84,19.7,19.7,0,0,0,1.08,4.7,11.28,11.28,0,0,0,2.2,3.74,6.36,6.36,0,0,0,3.71,2,33.12,33.12,0,0,0,1.95-3.77c.6-1.37,1.15-2.78,1.62-4.23a41.17,41.17,0,0,0,1.19-4.46,36,36,0,0,0,.63-4.43,10.68,10.68,0,0,0,.11-1.45V35.33a23.36,23.36,0,0,0-.41-4.45,12.6,12.6,0,0,0-1.27-3.63,7,7,0,0,0-2.2-2.45,5.56,5.56,0,0,0-3.16-.91,3.16,3.16,0,0,0-2.23.91,7.26,7.26,0,0,0-1.62,2.45,17.55,17.55,0,0,0-1.05,3.57c-.25,1.36-.46,2.77-.6,4.24-.08.66-.13,1.39-.17,2.2S229.46,38.91,229.46,39.79Z"/><path class="cls-1" d="M287.48,42s0,0,0,0,0,0,0-.06a2.5,2.5,0,0,1,1.18-.41c.39,0,.82.25,1.29.8q-1.42,2.91-3.24,6.24T283,55a58.28,58.28,0,0,1-4,5.58A17.86,17.86,0,0,1,275,64.26q-1.22,6.06-2.73,12.08T269,87.83a93.07,93.07,0,0,1-4,10.18,41.29,41.29,0,0,1-4.81,8,19.67,19.67,0,0,1-5.66,5.06,10.45,10.45,0,0,1-6.58,1.29,6.88,6.88,0,0,1-5-3,11.32,11.32,0,0,1-1.84-6.6,15.19,15.19,0,0,1,.5-3.79,42.82,42.82,0,0,1,3.74-9.32,56.54,56.54,0,0,1,5.39-8.14,76,76,0,0,1,6.54-7.26c2.35-2.3,4.77-4.52,7.26-6.69.3-1.43.59-2.84.88-4.23s.59-2.68.88-3.85l.88-3.74q-1.53,2.37-3.3,4.59a30,30,0,0,1-3.71,4A18.94,18.94,0,0,1,256,67.1a9.69,9.69,0,0,1-4.34,1.07,7.93,7.93,0,0,1-3.6-.74,6.47,6.47,0,0,1-2.37-2,7.9,7.9,0,0,1-1.29-2.92A15.25,15.25,0,0,1,244,59c0-.25,0-.54,0-.85s.05-.61.08-.91a33,33,0,0,1,1.41-6.1,49.57,49.57,0,0,1,2.75-6.79,54.91,54.91,0,0,1,3.87-6.69A36.36,36.36,0,0,1,257,31.9a23.25,23.25,0,0,1,5.5-4,12.94,12.94,0,0,1,6.05-1.51,8.16,8.16,0,0,1,4.32,1.15,10.39,10.39,0,0,1,3.16,3,13,13,0,0,1,1.84,4.13,13.43,13.43,0,0,1,.36,4.59c-.08.51-.16,1-.25,1.48a10.11,10.11,0,0,1-.41,1.49,1.54,1.54,0,0,1-.66.36,2.87,2.87,0,0,1-.72.19,1.51,1.51,0,0,1-1.21-.61,6,6,0,0,0,.31-1.15c.05-.37.11-.75.19-1.16a15.19,15.19,0,0,0-.19-2.88,9.21,9.21,0,0,0-.88-2.73,6.17,6.17,0,0,0-1.68-2,4.07,4.07,0,0,0-2.53-.8,6.43,6.43,0,0,0-3.91,1.51,20.23,20.23,0,0,0-3.79,3.91,40.08,40.08,0,0,0-3.41,5.36q-1.6,3-2.83,5.91a52.7,52.7,0,0,0-2,5.53,19.71,19.71,0,0,0-.88,4.18,8.07,8.07,0,0,0-.06,1.65,6.21,6.21,0,0,0,.31,1.62,2.61,2.61,0,0,0,.79,1.21,2.32,2.32,0,0,0,1.54.47,5.06,5.06,0,0,0,3.14-1.27,19.55,19.55,0,0,0,3.16-3.24,41.27,41.27,0,0,0,3-4.37q1.43-2.4,2.58-4.6a14.43,14.43,0,0,0,.55-1.37,7.91,7.91,0,0,0,.39-1.54,3.26,3.26,0,0,0,0-.52v-.53l-.22-1.26a2,2,0,0,1-.11-.58v-.41a1.2,1.2,0,0,1,.72-1,4.81,4.81,0,0,1,1.43-.3,10.51,10.51,0,0,1,3.11.41,5.7,5.7,0,0,1,2.11,1.16,5.23,5.23,0,0,1,1.27,1.7,7.79,7.79,0,0,1,.6,2.12q-.27,3-.6,6c-.22,2-.48,4.09-.77,6.29a23.39,23.39,0,0,0,3-3.43c1-1.38,2-2.85,3-4.43s1.89-3.19,2.77-4.84S286.75,43.51,287.48,42Zm-43.39,60.61a4.16,4.16,0,0,0,.63,2.37,2.38,2.38,0,0,0,2.12.93,5.07,5.07,0,0,0,2.5-1.07,12.12,12.12,0,0,0,2.28-2.34,27.25,27.25,0,0,0,3.08-5c1-2,1.85-4,2.7-6.24s1.62-4.43,2.33-6.68,1.39-4.38,2-6.36l1.16-3.79.33-1.49.22-.66a63.22,63.22,0,0,0-7.4,6.88,64.55,64.55,0,0,0-6.41,8.19c-.4.66-.91,1.61-1.54,2.84s-1.23,2.57-1.84,4a39.45,39.45,0,0,0-1.54,4.43A14.77,14.77,0,0,0,244.09,102.65Z"/><rect class="cls-2" x="11.77" y="11.92" width="5.67" height="37.17" rx="2.41"/><path class="cls-3" d="M15.27,76.7l4.27-8.15a.23.23,0,0,0-.2-.34H10.17a.21.21,0,0,0-.19.32l4.27,8.17A.57.57,0,0,0,15.27,76.7Z"/></svg>